<?xml version="1.0" encoding="utf-8"?>
<!-- Generator: Adobe Illustrator 19.0.0, SVG Export Plug-In . SVG Version: 6.00 Build 0)  -->
<svg version="1.1" id="layer" xmlns="http://www.w3.org/2000/svg" xmlns:xlink="http://www.w3.org/1999/xlink" x="0px" y="0px"
	 viewBox="-153 -46 652 652" style="enable-background:new -153 -46 652 652;" xml:space="preserve">
<style type="text/css">
	.st0{filter:url(#Adobe_OpacityMaskFilter);}
	.st1{fill:#FFFFFF;}
	.st2{mask:url(#b_1_);fill:#1B4075;}
	.st3{fill:#1B4075;}
	.st4{filter:url(#Adobe_OpacityMaskFilter_1_);}
	.st5{mask:url(#d_1_);fill:#1B4075;}
</style>
<defs>
	<filter id="Adobe_OpacityMaskFilter" filterUnits="userSpaceOnUse" x="477.3" y="303.9" width="159" height="87">
		<feColorMatrix  type="matrix" values="1 0 0 0 0  0 1 0 0 0  0 0 1 0 0  0 0 0 1 0"/>
	</filter>
</defs>
<mask maskUnits="userSpaceOnUse" x="477.3" y="303.9" width="159" height="87" id="b_1_">
	<g class="st0">
		<path id="a_1_" class="st1" d="M477.3,303.9h159v87h-159V303.9z"/>
	</g>
</mask>
<path class="st2" d="M595.3,351.9c3.5-8.8,5.4-17.8,7.2-26.5c-15.6,0.9-30.4,1.7-46.2,1.6c-15.1-7.8-30.3-15.5-45.5-23.1
	c2.7,8.2,5.6,17.1,7,25.9c-13,2.2-27,3.5-40.4,4.7c16.2,7.2,32.9,14.5,50.2,21.8c6.2,11.2,10.6,22.3,15.6,34.6
	c12-5.7,23.6-11.7,33.9-18.1c19.8,4.8,39.1,8.9,59.3,13C623,374.1,609.3,362.8,595.3,351.9"/>
<path class="st3" d="M543.1,390.9c-19.1-2-37.6-4.4-56-7.3c-12.5-10.7-25.2-21.3-38-31.7c-2.1,8.7-4.4,18.1-8.5,27.1
	c-16.3-0.4-32.8-1.7-48.8-3.1c14.2,10.5,28.6,21,43,31.2c-0.2,12.3-2,24.3-4.3,37.2c-20.1-5.6-40-12.3-58.4-18.6
	c-7.5-13.3-14.9-26.1-22.3-38.3c-7.4,8.4-16.1,16.4-25.7,24.6c-17.5-3.8-34.2-7.8-50.4-12.5c8.8,12.8,17.8,25.6,27.1,38.1
	c-8.2,12-17.2,23.5-27,34.2c-17.8-9.4-34.5-19.6-49.9-29.4c0-13.8-0.2-27.1-0.7-40c-12.5,6.5-25.9,12.3-40.3,18.1
	c-15.4-6.9-29.8-13.5-43.2-20.8c1.5,12.8,3.3,26.1,5.5,40c-13.8,8.7-28.9,17.7-45,25.8c-11.9-12-22.4-24.3-31.8-35.9
	c7.5-12.5,14.4-24.5,20.8-36.2c-15.3,3.7-31.1,6.4-47.6,9.1c-10.6-8.8-20.3-17.3-28.8-26c-5.5,12-10.8,24.1-15.8,36.3
	c-17.2,5.4-35,10.1-53.6,14.5c14.6,7.8,30.3,15.1,46.7,22.2c0.8,15.6,2.2,31.1,4.3,46.5c15.5-10.9,30.7-22.3,45.5-34.2
	c20,1.9,40.1,3.4,60.2,3.8h0c19.3,5.1,39.3,9.2,59.7,12.8c9.9,15.8,20.2,31.3,31.1,46.4c8.6-14.5,16.7-29.2,24.1-44.3
	c20-2.5,39.8-4.8,58.7-8.6c20.6,1.2,40.9,0.9,61.4,0.7c17.3,13.2,34.8,26,52.7,38.4c0-16.1-1.4-32.4-3-47.4
	c16.4-5.7,31.4-12.5,45.7-19.3h0c17.7-2.9,34.6-6.6,51.1-10.8c20,8.9,40.4,17.2,62,25.7c-8.3-14.6-17.3-28.9-26.7-42.9
	C527,408.2,535.3,399.4,543.1,390.9 M-29.7,362.5c-15.2,0.4-31,0.7-46.5,0c-5.1-9.1-8.9-18.3-12.1-27c-10.6,9.4-21,19-31.4,28.7
	c-17,1.8-34.1,2.9-51.7,3.7c2.7-11.5,5.5-22.1,9.5-32.6c15.2-6.2,29.9-12.3,44.2-18.4c-13.1-1.8-26.1-4-39.1-6.8
	c0.4-8.6,1.1-16.8,2.9-24.8c-13.2,6.5-26.3,13.2-39.3,20c-14.4-1-29-2.3-43-4.2c2.4,8.6,6,17.2,10.3,26c-11.3,9.8-22.3,19.9-33,30.3
	c18.1-2.7,35.8-5.7,53-9c11.2,7,22.7,13.6,34.5,19.5c8.9,9.3,18.3,18.1,28.2,26.4c-6.8,12.8-12.8,25.9-18.8,39.9
	c18.9-6.7,37.1-13.6,54.8-20.9c16.1,5.3,33,9.9,50.3,14c-4.4-12.6-7.4-25.1-9.8-36.7C-53.7,381.1-41.4,371.6-29.7,362.5"/>
<defs>
	<filter id="Adobe_OpacityMaskFilter_1_" filterUnits="userSpaceOnUse" x="-299.4" y="233.8" width="130.1" height="67.2">
		<feColorMatrix  type="matrix" values="1 0 0 0 0  0 1 0 0 0  0 0 1 0 0  0 0 0 1 0"/>
	</filter>
</defs>
<mask maskUnits="userSpaceOnUse" x="-299.4" y="233.8" width="130.1" height="67.2" id="d_1_">
	<g class="st4">
		<path id="c_1_" class="st1" d="M-299.4,233.8h130.1V301h-130.1V233.8z"/>
	</g>
</mask>
<path class="st5" d="M-236.1,301c6.9-9.1,14.8-17.9,22.3-25.9c15.1-3.2,30-6.4,44.6-9.7c-10.2-3.2-19.5-6.9-28.7-10.9
	c4.2-7.2,8.8-14.1,13.9-20.7c-13.4,3.8-27,7.8-40.8,12c-11.3-2.6-21.6-5.6-32.1-8.9c-1.8,7.5-3.1,15.2-3.7,22.9
	c-13,6.6-26,13.5-38.8,20.6c14.6,0.3,30.1,0,45-0.4C-249.1,287.2-243.2,294.3-236.1,301"/>
<path class="st3" d="M-243.9,180.8c-4.7,6-9.3,12.3-13.2,18.8c-13.1,4-26.1,8.2-39.1,12.6c11.3,1.9,22.6,3.6,34.6,5
	c0.8,6.6,2.5,13.1,4.6,19.7c9.6-6.7,19.4-13,29.5-19c13.4-0.8,26.8-1.8,40.1-2.8c-6.3-4-12.7-8.2-17.9-12.7c6.5-5.6,13.9-11,20.9-16
	c-12.8,1.8-25.5,3.6-38.3,5.5C-229.9,188.5-237,184.8-243.9,180.8c11-4.6,21.2-8.9,32.1-12.8c11.2,0.7,22.4,1.4,33.7,2
	c-3.2-4.2-6.4-8.5-8.6-12.8c8.1-4.1,16.3-8,24.6-11.6c-11.2,0.2-22.6,0.4-33.8,0.8c-4.3-3.5-8.2-7.4-11.9-11.6
	c10.8-2.9,21.2-5.5,31.8-7.9c8.8,1.7,17.7,3.4,26.8,5.1c-0.9-3.9-1.3-8-1.2-12c8.6-2.8,17.3-5.4,26.1-7.7c-9.4-0.9-19-1.8-28.5-2.6
	c-1.8-3.7-3.5-7.4-4.2-11.2c-7.8,3.4-15.2,7.1-22.6,10.9c-10.5,0.6-21.5,1.3-32.3,2.3c5.1,3.1,10.5,6.1,16.2,9
	c-4.3,4.5-8.3,9.2-12.1,14.1c-6.6,4.7-13.1,9.6-19.1,14.7c-12,2-24.1,4.2-36.3,6.7c8,2.7,16,5.3,24.8,7.8
	C-240.8,169.2-242.6,175-243.9,180.8 M-127.1,94.4c6.5,2.3,13.2,4.7,20.1,7c1.1-3.6,2.9-7.1,4.9-10.7c8.7-1.7,17.4-3.1,26.1-4.5
	c-7.7-1.7-15.4-3.3-23.1-4.9c0.1-3.5,0.8-6.9,1.8-10.3c9.3-0.5,18.6-0.7,27.8-0.8c4.5,2.6,9.1,5.3,14,8c2.9-3.1,6-6.2,9.7-9.2
	c8.5-0.8,17.1-1.3,25.3-1.7c-6-2.2-12-4.4-18.1-6.5c1.9-3,4.1-6.2,6.8-9.2c8.6,0.4,17,0.9,25.2,1.6c2.7,2.8,5.5,5.7,8.5,8.5
	c4.4-2.7,8.9-5.3,13.4-7.6c8.3,0.1,16.2,0.2,24.1,0.6c-4.3-2.5-8.7-5-13.2-7.5c3.3-2.7,7-5.4,11.1-7.9c7.7,1,15.3,2.3,22.4,3.5
	c1,2.9,2.2,5.7,3.4,8.7c5.2-2.1,10.8-4,16.6-5.9c7.7,0.7,15.2,1.6,22.5,2.6c-2.8-2.8-5.6-5.5-8.5-8.1c4.6-2.3,9.5-4.4,14.8-6.6
	c-8.5-0.1-17,0-25.5,0.1c-5.3-2.2-10.6-4.2-16-6.1c-2.4,2.5-4.4,5.2-6.2,7.9c-7.9,1.1-15.7,2.4-23.6,3.9h0c-8.5,0.6-17,1.4-25.6,2.4
	C5.3,39.9-1.3,38.3-8,36.8c-0.8,2.9-1.4,5.8-1.7,8.6c-7.5,1.9-14.8,3.9-21.9,6.1c-8.4,1.5-16.9,3.1-25.2,4.8
	c-7.9-1.2-15.8-2.2-23.8-3.1c0.8,3.1,1.8,6.1,3.3,9.2c-6.7,2.6-13.3,5.5-19.9,8.5c-8.2,2.4-16.3,4.9-24.4,7.6
	c-9.3-0.4-18.6-0.7-28-0.8c2.6,3.1,5.8,6.3,9.2,9.4c-5.9,3.6-11.6,7.3-16.8,11.2C-147.1,96.7-136.9,95.5-127.1,94.4"/>
<path class="st3" d="M128.5,38.7c-0.6,2.8-1.1,5.7-1.5,8.5c6.2-1.4,12.7-2.9,19.4-4.2c7.2,1.4,14,2.8,20.6,4.5
	c-1.1-2.9-2.4-5.8-3.8-8.6c5.8-1.8,11.9-3.5,18.3-5c-8.4-0.9-16.8-1.4-25.3-2c-4-2.5-8.1-4.9-12.3-7.1c-3.7,2.2-7.1,4.6-10.3,7
	c-8.3,0.4-16.5,1-24.7,1.7C115.6,35.1,122.2,36.9,128.5,38.7"/>
<path class="st3" d="M198.2,40.7c-2.2,2.6-4.3,5.3-6.3,8.1c7.3-0.9,14.6-1.7,21.9-2.3c6.4,1.9,12.5,4.1,18.4,6.1
	c0.5-2.9,0.8-5.8,1-8.6c7-1.3,14.1-2.2,21.7-3.3c-8.2-1.5-16.4-2.9-24.8-4.2c-2.5-2.7-5.3-5.4-8.5-8c-5,1.9-9.8,3.9-14.4,5.9
	c-8.6-0.3-17.2-0.4-25.7-0.4C187.4,36.1,193,38.3,198.2,40.7"/>
<path class="st3" d="M257.1,56.1c8.1-0.2,16.1-0.3,24.2-0.2c5.5,2.6,10.9,5.1,15.7,7.8c2.2-2.8,4.3-5.7,6.3-8.5
	c8.4-0.6,16.8-1,25.1-1.2c-7.7-2.3-15.9-4.4-24-6.4c-1.2-3-2.6-5.9-4.2-8.7c-6.4,1.4-12.8,3-18.8,4.6c-8.8-1.1-17.8-1.9-26.5-2.8
	c4.8,2.7,9.2,5.4,13.4,8.1C264.5,51.1,260.8,53.6,257.1,56.1"/>
<path class="st3" d="M337.9,63.3c-5.6,2-11.1,4.1-16.5,6.2c8.6,0.5,17.3,1.2,26.3,2.1c4.6,3.1,8.6,6.3,12.4,9.4
	c4.1-2.5,8.1-5.2,12.1-7.9c9.3,0.2,18.7,0.7,28.7,1.2c-7.5-3-14.9-6-22.7-8.8c0.6-3.1,0.9-6.2,0.8-9.2c-8,0.8-15.8,1.8-23.4,2.8
	c-9.1-1.8-18-3.7-27.1-5.2C332,57,335.1,60.1,337.9,63.3 M-14.1,184.2c1.1-0.3,2.3-0.7,3.5-0.9c1.4-1.9,4.2-8.6,4.9-15.4
	c-0.5-0.9-2.1-1.3-3-0.4c-2.8,6.6-8.4,15.1-21.2,15.1c-13.1,0-26.6-10.5-26.6-32.1c0-20.8,13-29.9,25.8-29.9
	c13.4,0,17.9,8.4,19.7,14.8c0.7,0.7,2.5,0.6,3.3-0.2c-1-7.5-1.2-13.5-1.4-15.8c-0.9-0.2-1.6-0.3-2.8-0.6c-5.7-1.4-11.6-2.1-17.5-2.2
	c-10.2,0-20.5,2.9-28,8.6c-7.5,5.8-12.8,15-12.8,26.8c0,13.3,6.2,22.5,14.4,27.9c7.3,4.8,15.9,6.8,25.9,6.8
	C-23.4,186.6-16.4,184.9-14.1,184.2 M8.3,181.9l-3,0.5c-0.9,0.5-0.6,2.5,0.2,2.9c4.8-0.2,9.7-0.3,14.5-0.3h10.6
	c11.4,0,20.1,0.1,24.3,0.3c1.2-2.7,3.5-10.4,4.3-14.7c-0.5-0.8-2.1-1.1-3.1-0.6c-4.7,10.4-6.3,10.9-17.5,10.9
	c-8.1,0-9.7-0.8-10.9-2.2c-1.5-1.7-1.7-5.4-1.7-10.4v-35.6c0-10.5,0.9-10.7,5.7-11.5l2.2-0.4c0.8-0.5,0.7-2.5-0.2-2.9
	c-4.5,0.2-9,0.3-13.5,0.3c-4.7,0-9.2-0.1-14.3-0.3c-0.9,0.4-0.9,2.4-0.2,2.9l2.8,0.4c4.8,0.7,5.7,1,5.7,11.5v37.7
	C14,180.9,13.1,181,8.3,181.9 M71.2,182.1l-2.2,0.3c-0.7,0.7-0.6,2.5,0.2,2.9c9.1-0.4,18.1-0.4,27.2,0c0.8-0.4,0.9-2.2,0.2-2.9
	l-2.2-0.3c-4.8-0.6-5.7-0.9-5.7-11.6v-37.7c0-10.7,0.9-11,5.7-11.6l2.2-0.3c0.7-0.7,0.6-2.5-0.2-2.9c-9.1,0.4-18.1,0.4-27.2,0
	c-0.8,0.4-0.9,2.2-0.2,2.9l2.2,0.3c4.8,0.6,5.7,0.9,5.7,11.6v37.7C76.9,181.2,75.9,181.5,71.2,182.1 M169,165.7
	c-1-0.6-10.4-11.3-14.7-16l-10.1-10.9c-3.6-3.9-14.6-16.6-16.3-21c-2.3,0.2-4.7,0.3-7,0.3c-2.5,0-8.1,0.1-12-0.3
	c-1,0.3-1.1,2.3-0.4,2.9l1.5,0.3c1.4,0.3,4.3,1.1,5.4,2c3.5,2.9,3.3,4.6,3.3,12.5v24c0,8,0,16.8-1.3,20c-0.7,1.6-2.5,1.9-4.5,2.3
	l-2.2,0.5c-0.8,0.7-0.6,2.4,0.2,2.9c3.6-0.2,6.3-0.3,10.6-0.3c3.8,0,7.8,0.1,11.6,0.3c1-0.3,1.1-2.2,0.2-2.9L131,182
	c-2.5-0.3-4.2-1-5.2-2.5c-1.7-3.1-1.8-12.4-1.8-20v-19.7c0-5.4,0-6.5,0.3-6.5c1.7,1.5,5.1,5.3,11.6,12.8l23.7,27
	c7.3,8.3,10.2,11.7,11.9,13.9c1.3,0.2,2.6-0.4,3.4-1.4c-0.3-2.3-0.3-14.8-0.3-17.8v-24.2c0-8,0-16.8,1.4-20c0.7-1.6,2.4-1.9,4.4-2.3
	l2.3-0.5c0.8-0.7,0.6-2.4-0.2-2.9c-3.6,0.2-6.3,0.3-10.6,0.3c-3.9,0-7.8-0.1-11.7-0.3c-1,0.3-1.1,2.2-0.2,2.9l2.3,0.3
	c2.5,0.3,4.2,1,5.1,2.5c1.8,3,1.9,12.4,1.9,20v19.7C169.3,164.9,169.3,165.4,169,165.7 M258.7,115.1c-0.4,0-0.8,0.2-1.2,0.4
	c-1.2,2.3-2.7,2.6-7.7,2.6h-41.4c-6.9,0-8.3-0.1-8.8-2.6c-0.2-0.3-0.6-0.4-1-0.4c-0.5,0-0.9,0.1-1.1,0.4c-0.7,3.6-2.2,9.8-4,15.3
	c0.4,1,2.5,1.3,3.3,0.7c3.7-8.2,6.5-9.3,15.8-9.3h5.7c2.6,0,2.7,0.2,2.7,4.5v43.8c0,10.7-0.9,10.8-5.7,11.4l-4.3,0.5
	c-0.7,0.5-0.6,2.5,0.2,2.9c5.2-0.2,10.5-0.3,15.7-0.3c4.5,0,9,0.1,14.9,0.3c0.8-0.4,0.9-2.2,0.2-2.9l-3.6-0.4
	c-4.8-0.5-5.7-0.8-5.7-11.5v-43.8c0-4.3,0.1-4.5,2.7-4.5h5.8c10.9,0,12.8,1.9,14.1,9.8c0.9,0.7,2.6,0.5,3.1-0.3
	c-0.3-3.2,0.5-12,1.5-16.1C259.8,115.3,259.3,115.1,258.7,115.1 M302.9,120.6c16.1,0,23,17.7,23,33c0,20.4-9.3,29-20.9,29
	c-17.4,0-23.3-19-23.3-33C281.6,128,292.7,120.6,302.9,120.6 M304,186.6c20.5,0,35.7-14.9,35.7-34.9c0-18.4-12.1-35.3-35.5-35.3
	c-21.3,0-36.3,15.3-36.3,36C267.9,170.5,281,186.6,304,186.6 M405.6,121.1c2.5,0.3,4.2,1,5.1,2.5c1.8,3,1.9,12.4,1.9,20v19.7
	c0,1.6,0,2.1-0.3,2.4c-1-0.6-10.4-11.3-14.7-16l-10.1-10.9c-3.6-3.9-14.6-16.6-16.3-21c-2.4,0.2-4.9,0.3-7,0.3
	c-2.5,0-8.1,0.1-12-0.3c-1,0.3-1.1,2.3-0.4,2.9l1.5,0.3c1.4,0.3,4.2,1.1,5.4,2c3.5,2.9,3.3,4.6,3.3,12.5v24c0,8,0,16.8-1.3,20
	c-0.7,1.6-2.5,1.9-4.5,2.3l-2.2,0.5c-0.8,0.7-0.6,2.4,0.2,2.9c3.6-0.2,6.3-0.3,10.6-0.3c3.9,0,7.8,0.1,11.6,0.3
	c1-0.3,1.1-2.2,0.2-2.9l-2.2-0.3c-2.5-0.3-4.3-1-5.2-2.5c-1.7-3.1-1.8-12.4-1.8-20v-19.7c0-5.4,0-6.5,0.3-6.5
	c1.7,1.5,5.1,5.3,11.6,12.8l23.7,27c7.3,8.3,10.2,11.8,11.8,13.9c1.3,0.2,2.6-0.4,3.5-1.4c-0.3-2.3-0.3-14.8-0.3-17.8v-24.2
	c0-8,0-16.8,1.4-20c0.7-1.6,2.4-1.9,4.4-2.3l2.3-0.5c0.8-0.7,0.6-2.4-0.2-2.9c-3.7,0.2-6.3,0.3-10.6,0.3c-3.9,0-7.7-0.1-11.7-0.3
	c-1,0.3-1.1,2.2-0.2,2.9L405.6,121.1L405.6,121.1z M-64.8,260.7l-1.3,0.2c-0.4,0.4-0.3,1.5,0.1,1.7c5.4-0.3,10.9-0.3,16.4,0
	c0.4-0.2,0.5-1.4,0.1-1.7l-1.6-0.2c-3.9-0.5-4-1.3-4-8.4v-24.3c0-7.1,0.1-8.1,4-8.5l1.4-0.1c0.4-0.3,0.3-1.5-0.1-1.7
	c-5.4,0.3-10.8,0.3-16.2,0c-0.4,0.2-0.5,1.4-0.1,1.7l1.3,0.1c4,0.4,4.1,1.4,4.1,8.5v7.8c0,2.1-0.1,2.2-3.4,2.2h-19.3
	c-3.3,0-3.4-0.1-3.4-2.2v-7.8c0-7.1,0.1-8.1,4.1-8.5l1.3-0.1c0.4-0.3,0.3-1.5-0.1-1.7c-2.9,0.1-5.2,0.2-7.8,0.2
	c-2.9,0-5.2-0.1-8.5-0.2c-0.4,0.2-0.5,1.4-0.1,1.7l1.8,0.1c3.5,0.3,4,1.4,4,8.5v24.3c0,7.1-0.1,7.8-3.9,8.4l-1.1,0.2
	c-0.4,0.4-0.3,1.5,0.1,1.7c2.7-0.1,4.9-0.2,7.9-0.2c2.6,0,4.9,0.1,8.6,0.2c0.4-0.2,0.5-1.4,0.1-1.7l-2-0.2c-3.8-0.4-4.1-1.3-4.1-8.4
	v-9.5c0-2,0.1-2.2,3.4-2.2H-64c3.2,0,3.4,0.1,3.4,2.2v9.5C-60.6,259.4-60.6,260-64.8,260.7 M-32.2,262.4h6.1c6,0,12,0.1,18.1,0.2
	c0.9-1.8,2.6-7,3-9.4c-0.3-0.6-1.2-0.8-1.7-0.5c-1.8,3.5-3.6,5.9-4.8,6.6c-1.5,0.8-3.4,1-8.6,1c-6,0-7.4-0.7-8.2-1.6
	c-1.1-1.1-1.3-3.4-1.3-7v-9.5c0-1.7,0.2-1.8,2.2-1.8h3.9c2.6,0,4.3,0.1,5.2,0.3c1.4,0.3,1.8,1.3,2.1,2.6l0.6,2.6
	c0.4,0.4,1.5,0.4,1.8-0.1c0-1.5-0.3-4.1-0.3-6.5c0-2.6,0.3-5.2,0.3-6.8c-0.3-0.5-1.4-0.5-1.8-0.1l-0.5,2.8c-0.3,1.7-0.8,2.1-1.6,2.4
	c-0.8,0.3-2.9,0.4-5.7,0.4h-3.9c-2,0-2.2,0-2.2-1.9v-13.5c0-2.6,0-2.7,2-2.7h4.9c3,0,5.1,0.1,6.6,0.4c3.5,0.9,4.1,3.2,5.1,6.4
	c0.3,0.4,1.4,0.3,1.7-0.1c-0.3-3-0.7-7.8-1.1-9c-0.8,0.2-4.8,0.2-9.1,0.2h-12.7c-2.8,0-5.1-0.1-8-0.2c-0.4,0.2-0.5,1.4-0.1,1.7
	l1.1,0.1c4,0.5,4.1,1.5,4.1,8.5v24.3c0,7.1-0.3,8.1-4.2,8.4l-2.2,0.2c-0.4,0.4-0.3,1.5,0.1,1.7C-37.4,262.4-35.1,262.4-32.2,262.4
	 M12.6,240.7l4.2-11.7c0.8-2,1.4-3.6,1.6-4h0.1c0.4,0.8,1,2.6,1.6,4.2l3.7,11c0.6,1.8,0.5,2.1-1.5,2.1H14
	C12.1,242.3,12.1,242.3,12.6,240.7 M10.7,262.6c0.6-0.3,0.6-1.4,0.1-1.7l-2.2-0.2c-1.6-0.1-2-0.6-2-1.3c0-0.8,0.5-2.6,1.5-5.6
	l2.4-7.1c0.5-1.4,0.9-1.6,2.6-1.6h10.2c2,0,2.3,0.2,2.8,1.7l3,9.2c0.5,1.6,0.9,2.8,0.9,3.6c0,0.7-0.9,1.1-2.4,1.2l-2,0.2
	c-0.5,0.3-0.4,1.4,0.1,1.7c2-0.1,4.5-0.2,7.8-0.2c3,0,5.4,0.1,8.2,0.2c0.3-0.3,0.5-1.4,0-1.7l-1.8-0.2c-2.9-0.3-3.8-1.3-5.8-7.2
	l-9.3-27.1c-1-3-2.1-6.1-3-9.1c-0.1-0.4-0.6-0.6-1-0.6c-0.7,0.9-1.9,2.1-3.5,2.6c0.2,1.1-0.2,2.4-1.1,4.8l-6.9,18.2
	c-2.8,7.6-4.7,11.9-6,15c-0.9,2.4-2.4,3.2-4,3.3l-2.2,0.2c-0.4,0.3-0.3,1.4,0.1,1.7c1.8-0.1,4.3-0.2,6.5-0.2
	C6.8,262.4,8.9,262.4,10.7,262.6 M77.9,262.6c1-1.8,2.8-8.7,2.8-9.5c0-0.5-1.3-0.7-1.7-0.4c-1.4,3.4-3.1,5.9-4.5,6.7
	c-1.1,0.6-2.5,0.9-8.3,0.9c-5.3,0-6.6-0.8-7.4-1.6c-1.2-1.3-1.4-3-1.4-7.3v-23.5c0-7.1,0.1-8.2,4.1-8.5l1.6-0.1
	c0.4-0.3,0.3-1.5-0.1-1.7c-3.4,0.1-5.7,0.2-8.3,0.2c-2.7,0-5-0.1-8.8-0.2c-0.4,0.2-0.5,1.4-0.1,1.7l1.7,0.1c4.3,0.3,4.4,1.4,4.4,8.5
	v24.3c0,7.1-0.1,8-4.1,8.4l-2,0.2c-0.4,0.4-0.3,1.5,0.1,1.7c3.8-0.1,6-0.2,8.8-0.2H61C68,262.4,74.4,262.4,77.9,262.6 M91.8,260.7
	l-2.4,0.2c-0.5,0.3-0.4,1.5,0,1.7c4.3-0.1,6.7-0.2,9.4-0.2c2.7,0,5,0.1,8.9,0.2c0.4-0.2,0.5-1.4,0.1-1.7l-2.2-0.2
	c-3.9-0.3-4-1.3-4-8.4v-30.1c0-2.2-0.1-2.3,2-2.3h4.8c3.7,0,6.3,0.5,7.8,1.7c1,0.7,1.5,3.2,1.7,4.9c0.3,0.4,1.5,0.4,1.8-0.1
	c-0.2-2,0.2-7.5,1-10.3c-0.1-0.3-0.9-0.3-1.2-0.2c-1,1.8-1.6,1.9-5.3,1.9H86.8c-3.1,0-5.3,0.1-5.7-2.1c-0.2-0.2-1.1-0.1-1.3,0
	c-0.6,3.4-1.5,6.8-2.6,10.1c0.3,0.5,1.2,0.9,1.8,0.5c0.7-1.7,1.4-3.2,3-4.7c1.7-1.6,5.4-1.7,8.3-1.7H94c2,0,2,0.1,2,2.2v30.2
	C96,259.4,95.7,260.4,91.8,260.7 M175.4,262.6c0.4-0.2,0.5-1.4,0.1-1.7l-1.6-0.2c-3.9-0.5-4-1.3-4-8.4v-24.3c0-7.1,0.1-8.1,4-8.5
	l1.4-0.1c0.4-0.3,0.3-1.5-0.1-1.7c-5.4,0.3-10.8,0.3-16.2,0c-0.4,0.2-0.5,1.4-0.1,1.7l1.3,0.1c4,0.4,4.1,1.4,4.1,8.5v7.8
	c0,2.1-0.1,2.2-3.4,2.2h-19.3c-3.2,0-3.4-0.1-3.4-2.2v-7.8c0-7.1,0.1-8.1,4.1-8.5l1.3-0.1c0.4-0.3,0.3-1.5-0.1-1.7
	c-2.9,0.1-5.2,0.2-7.8,0.2c-2.9,0-5.2-0.1-8.5-0.2c-0.4,0.2-0.6,1.4-0.1,1.7l1.8,0.1c3.5,0.3,4,1.4,4,8.5v24.3
	c0,7.1-0.1,7.8-3.9,8.4l-1.2,0.2c-0.4,0.4-0.3,1.5,0.1,1.7c2.6-0.1,4.9-0.2,7.8-0.2c2.6,0,4.9,0.1,8.6,0.2c0.4-0.2,0.5-1.4,0.1-1.7
	l-2-0.2c-3.8-0.4-4.1-1.3-4.1-8.4v-9.5c0-2,0.1-2.2,3.4-2.2h19.3c3.3,0,3.4,0.1,3.4,2.2v9.5c0,7.1,0,7.8-4.1,8.4l-1.3,0.2
	c-0.4,0.4-0.3,1.5,0.1,1.7C164.5,262.3,170,262.3,175.4,262.6 M224.7,242.3h-8.3c-1.9,0-1.9-0.1-1.4-1.6l4.2-11.7
	c0.8-2,1.4-3.6,1.6-4h0.1c0.4,0.8,1,2.6,1.6,4.2l3.7,11C226.8,242.1,226.7,242.3,224.7,242.3 M229.8,260.7l-2,0.2
	c-0.5,0.3-0.4,1.4,0.1,1.7c2-0.1,4.5-0.2,7.8-0.2c3,0,5.4,0.1,8.2,0.2c0.3-0.3,0.5-1.4,0-1.7l-1.8-0.2c-2.9-0.3-3.8-1.3-5.7-7.2
	l-9.3-27.1c-1-3-2.1-6.1-3-9.1c-0.1-0.5-0.6-0.6-1-0.6c-0.7,0.9-1.9,2.1-3.5,2.6c0.2,1.1-0.2,2.4-1.1,4.8l-6.9,18.2
	c-2.8,7.6-4.7,12-5.9,15.1c-1,2.4-2.4,3.2-4.1,3.3l-2.2,0.2c-0.4,0.3-0.3,1.4,0.1,1.7c1.8-0.1,4.3-0.2,6.5-0.2
	c3.2,0.1,5.3,0.1,7,0.2c0.6-0.3,0.6-1.4,0.2-1.7l-2.2-0.2c-1.6-0.1-2-0.6-2-1.3c0-0.8,0.5-2.6,1.5-5.6l2.3-7.1
	c0.5-1.4,0.9-1.6,2.6-1.6h10.2c2,0,2.3,0.2,2.8,1.7l3,9.2c0.5,1.6,0.9,2.8,0.9,3.6C232.2,260.1,231.3,260.6,229.8,260.7
	 M287.3,261.2c1-1.3,2.8-5.7,3.2-9.3c-0.3-0.5-1.3-0.6-1.8-0.3c-1.6,4-5.4,9.7-14.1,9.7c-11.1,0-20.1-7.8-20.1-22
	c0-14,8.8-20.5,19.1-20.5c9.8,0,12.8,5.3,13.9,9.9c0.5,0.4,1.5,0.3,1.8-0.1c-0.4-3.3-0.8-6.6-1-9.9c-0.6,0.1-1.1-0.1-1.9-0.3
	c-3.9-1-7.9-1.6-12-1.6c-7,0-13.3,1.9-18.3,5.7c-5.1,4-8.5,10.4-8.5,17.9c0,8.7,4.2,14.9,9.6,18.6c5,3.3,10.8,4.5,16.8,4.5
	c4.3,0,9.2-1,10.7-1.5C285.7,261.6,286.5,261.4,287.3,261.2 M337.1,261.2c1-1.3,2.8-5.7,3.2-9.3c-0.3-0.5-1.3-0.6-1.7-0.3
	c-1.6,4-5.4,9.7-14.2,9.7c-11.1,0-20.1-7.8-20.1-22c0-14,8.8-20.5,19.1-20.5c9.8,0,12.8,5.3,13.9,9.9c0.5,0.4,1.5,0.3,1.8-0.1
	c-0.4-3.3-0.8-6.6-1-9.9c-0.6,0.1-1.1-0.1-1.9-0.3c-3.9-1-7.9-1.6-12-1.6c-7,0-13.3,1.9-18.2,5.7c-5.2,4-8.5,10.4-8.5,17.9
	c0,8.7,4.2,14.9,9.6,18.6c4.9,3.3,10.8,4.5,16.8,4.5c4.3,0,9.2-1,10.7-1.5C335.5,261.6,336.3,261.4,337.1,261.2 M383.3,253.2
	c-0.3-0.6-1.2-0.8-1.7-0.5c-1.7,3.5-3.6,5.9-4.8,6.6c-1.5,0.8-3.4,1-8.6,1c-6,0-7.4-0.7-8.2-1.6c-1.1-1.1-1.3-3.4-1.3-7v-9.5
	c0-1.7,0.2-1.8,2.2-1.8h3.9c2.6,0,4.3,0.1,5.2,0.3c1.4,0.3,1.8,1.3,2.1,2.6l0.6,2.6c0.3,0.4,1.5,0.4,1.8-0.1c0-1.5-0.3-4.1-0.3-6.5
	c0-2.6,0.3-5.2,0.3-6.8c-0.3-0.5-1.4-0.5-1.8-0.1l-0.5,2.8c-0.4,1.7-0.8,2.1-1.6,2.4c-0.8,0.3-2.9,0.4-5.7,0.4h-3.9
	c-2,0-2.2,0-2.2-1.9v-13.5c0-2.6,0-2.7,2-2.7h4.9c3,0,5.2,0.1,6.6,0.4c3.5,0.9,4.1,3.2,5.1,6.4c0.3,0.4,1.4,0.3,1.7-0.1
	c-0.3-3-0.7-7.8-1.1-9c-0.8,0.2-4.8,0.2-9.1,0.2H356c-2.8,0-5.1-0.1-8-0.2c-0.4,0.2-0.6,1.4-0.1,1.7l1.1,0.1c4,0.5,4.1,1.5,4.1,8.5
	v24.3c0,7.1-0.3,8.1-4.2,8.4l-2.2,0.2c-0.4,0.4-0.3,1.5,0.1,1.7c4-0.1,6.3-0.2,9.2-0.2h6.1c6,0,12,0.1,18.1,0.2
	C381.5,259.5,382.5,256.4,383.3,253.2 M402.7,261.4c-7.9,0-10.6-6.6-11.6-10.1c-0.3-0.4-1.3-0.3-1.6,0.2c0.2,3.2,1,8,1.8,9.5
	c1.3,0.7,4.9,2.5,10.5,2.5c8.8,0,14.4-5.1,14.4-12.5c0-6.4-4.2-10.3-8.4-13l-5.4-3.4c-2.5-1.5-5.8-4.4-5.8-8.3c0-3.1,1.4-7.5,8-7.5
	c6.5,0,8.3,4.4,9.2,7.6c0.3,0.4,1.4,0.2,1.7-0.2c0-2.8-0.6-6.6-1.2-8.2c-0.5,0-1.5-0.1-2.4-0.4c-2.1-0.5-4.2-0.8-6.3-0.9
	c-8.8,0-13.8,5.2-13.8,11.6c0,5.5,3.9,9.4,7.3,11.6l6.4,4.2c4.9,3.2,5.6,6.5,5.6,9.5C411.1,257.7,408.4,261.4,402.7,261.4
	 M438.5,261.4c-7.8,0-10.6-6.6-11.6-10.1c-0.3-0.4-1.3-0.3-1.7,0.2c0.2,3.2,1,8,1.8,9.5c1.3,0.7,4.9,2.5,10.5,2.5
	c8.8,0,14.4-5.1,14.4-12.5c0-6.4-4.2-10.3-8.4-13l-5.4-3.4c-2.5-1.5-5.8-4.4-5.8-8.3c0-3.1,1.4-7.5,8.1-7.5c6.5,0,8.3,4.4,9.2,7.6
	c0.3,0.4,1.4,0.2,1.7-0.2c0-2.8-0.6-6.6-1.2-8.2c-0.6,0-1.5-0.1-2.4-0.4c-2.1-0.5-4.2-0.8-6.3-0.9c-8.8,0-13.8,5.2-13.8,11.6
	c0,5.5,3.9,9.4,7.3,11.6l6.4,4.2c5,3.2,5.6,6.5,5.6,9.5C446.9,257.7,444.1,261.4,438.5,261.4 M-0.8,297.8l1.7-0.1
	c0.4-0.3,0.3-1.5-0.1-1.7c-3.4,0.1-5.7,0.2-8.4,0.2c-2.8,0-5.1-0.1-8.5-0.2c-0.4,0.2-0.5,1.4-0.1,1.7l1.7,0.1c4,0.3,4.1,1.5,4.1,8.6
	v24c0,7.2-0.1,8.1-4.1,8.6l-1.7,0.2c-0.4,0.4-0.3,1.5,0.1,1.7c3.4-0.1,5.7-0.2,8.5-0.2c2.7,0,5,0.1,8.4,0.2c0.4-0.2,0.5-1.4,0.1-1.7
	l-1.7-0.2c-4-0.5-4.1-1.4-4.1-8.6v-24C-4.9,299.3-4.8,298.2-0.8,297.8 M57.6,297.9l0.9-0.1c0.4-0.4,0.4-1.3-0.1-1.7
	c-2.3,0.1-4,0.2-7,0.2c-2.6,0-4.9-0.1-8-0.2c-0.5,0.2-0.6,1.3-0.1,1.7l1.1,0.1c2.7,0.3,3.8,0.7,4.2,1.3c1.3,2,1.3,10.8,1.3,14v14.4
	c0,1.4,0,2.5-0.3,2.8h-0.1c-3.2-3.2-6.5-7-11.2-12.2l-6.6-7.4c-2.2-2.5-10.2-11.4-11.6-14.8c-1,0.1-2.1,0.2-3.1,0.2
	c-1.2,0-4.8,0-7.6-0.2c-0.5,0.3-0.5,1.3-0.1,1.7l1.2,0.1c1.6,0.2,3.2,0.7,4.2,1.6c1.4,1.6,1.5,3,1.5,4.9v19.5
	c0,3.2,0.1,11.5-0.9,13.9c-0.3,0.7-1.4,1.2-3,1.4l-1.8,0.2c-0.4,0.4-0.3,1.4,0.1,1.7c2.4-0.1,4.2-0.2,7-0.2c2.5,0,4.9,0.1,7.9,0.2
	c0.5-0.3,0.5-1.1,0.1-1.7l-2.1-0.2c-1.7-0.1-3-0.6-3.4-1.3c-1.1-2-1.2-10.8-1.2-14v-14.7c0-2,0.1-3.6,0.3-4.4h0.1
	c1.4,1.5,6,7,7.8,9.1l15.7,17.8c5.9,6.7,7.8,9.1,8.6,10.2c0.7,0,1.2-0.3,1.3-0.7c-0.2-1.8-0.2-9.8-0.2-11.8v-16.1
	c0-3.1-0.1-11.5,1-13.9C54.1,298.7,55.4,298.2,57.6,297.9 M83.1,297.8l1.7-0.1c0.4-0.3,0.3-1.5-0.1-1.7c-3.4,0.1-5.7,0.2-8.4,0.2
	c-2.8,0-5.1-0.1-8.5-0.2c-0.4,0.2-0.5,1.4-0.1,1.7l1.7,0.1c4,0.3,4.1,1.5,4.1,8.6v24c0,7.2-0.1,8.1-4.1,8.6l-1.7,0.2
	c-0.4,0.4-0.3,1.5,0.1,1.7c3.4-0.1,5.7-0.2,8.5-0.2c2.7,0,5,0.1,8.4,0.2c0.4-0.2,0.5-1.4,0.1-1.7l-1.7-0.2c-4-0.5-4.1-1.4-4.1-8.6
	v-24C79,299.3,79.1,298.2,83.1,297.8 M134.4,294.3c-1,1.8-1.6,1.9-5.3,1.9h-27.4c-3.1,0-5.3,0.1-5.7-2.1c-0.2-0.2-1.1-0.1-1.3,0
	c-0.6,3.4-1.5,6.8-2.6,10.1c0.3,0.5,1.2,0.9,1.8,0.5c0.7-1.7,1.4-3.2,3-4.7c1.7-1.6,5.4-1.7,8.3-1.7h3.7c2,0,2,0.1,2,2.2v30.2
	c0,7.1-0.3,8.1-4.2,8.4l-2.4,0.2c-0.5,0.3-0.4,1.5,0,1.7c4.3-0.1,6.7-0.2,9.4-0.2c2.7,0,5,0.1,8.9,0.2c0.4-0.2,0.5-1.4,0.1-1.7
	l-2.2-0.2c-3.9-0.3-4-1.4-4-8.4v-30c0-2.2-0.1-2.3,1.9-2.3h4.8c3.7,0,6.3,0.5,7.8,1.7c1,0.7,1.5,3.2,1.7,4.9
	c0.4,0.4,1.5,0.4,1.8-0.1c-0.2-2,0.3-7.5,1-10.3C135.5,294.3,134.8,294.2,134.4,294.3 M158.7,297.8l1.7-0.1c0.4-0.3,0.3-1.5-0.1-1.7
	c-3.4,0.1-5.7,0.2-8.4,0.2c-2.8,0-5.1-0.1-8.5-0.2c-0.4,0.2-0.5,1.4-0.1,1.7l1.7,0.1c4,0.3,4.1,1.5,4.1,8.6v24
	c0,7.2-0.1,8.1-4.1,8.6l-1.7,0.2c-0.4,0.4-0.3,1.5,0.1,1.7c3.4-0.1,5.7-0.2,8.5-0.2c2.7,0,5,0.1,8.4,0.2c0.4-0.2,0.6-1.4,0.1-1.7
	l-1.7-0.2c-4-0.5-4.1-1.4-4.1-8.6v-24C154.6,299.3,154.8,298.2,158.7,297.8 M191.2,320.7h-8.3c-1.9,0-2-0.1-1.4-1.6l4.2-11.8
	c0.5-1.4,1-2.7,1.6-4h0.1c0.4,0.8,1,2.7,1.6,4.3l3.6,11C193.3,320.5,193.2,320.7,191.2,320.7 M196.3,339.1l-2,0.2
	c-0.5,0.3-0.4,1.4,0.1,1.7c2-0.1,4.5-0.2,7.8-0.2c3,0,5.4,0.1,8.2,0.2c0.3-0.3,0.5-1.4,0-1.7l-1.8-0.2c-2.9-0.3-3.8-1.4-5.7-7.2
	l-9.3-27.1c-1-3-2.1-6.1-3-9.1c-0.1-0.5-0.6-0.6-1-0.6c-0.7,0.9-1.9,2.1-3.5,2.6c0.2,1.1-0.2,2.4-1.1,4.8l-6.9,18.2
	c-2.8,7.6-4.7,12-6,15.1c-0.9,2.4-2.4,3.2-4,3.3l-2.2,0.2c-0.4,0.3-0.3,1.4,0.1,1.7c1.8-0.1,4.3-0.2,6.5-0.2c3.2,0.1,5.3,0.1,7,0.2
	c0.6-0.3,0.6-1.4,0.1-1.7l-2.2-0.2c-1.6-0.1-2-0.6-2-1.4c0-0.7,0.5-2.6,1.5-5.6l2.4-7.1c0.5-1.4,0.9-1.6,2.6-1.6h10.2
	c2,0,2.3,0.2,2.8,1.7l3,9.2c0.6,1.6,0.9,2.8,0.9,3.6C198.7,338.6,197.8,339,196.3,339.1 M251.5,294.3c-1,1.8-1.6,1.9-5.3,1.9h-27.4
	c-3.1,0-5.3,0.1-5.8-2.1c-0.2-0.2-1.1-0.1-1.3,0c-0.5,2.7-1.5,7-2.6,10.1c0.3,0.5,1.2,0.9,1.8,0.5c0.7-1.7,1.4-3.2,3-4.7
	c1.7-1.6,5.4-1.7,8.3-1.7h3.7c2,0,2,0.1,2,2.2v30.2c0,7.1-0.3,8.1-4.2,8.4l-2.5,0.2c-0.5,0.3-0.4,1.5,0,1.7c4.3-0.1,6.7-0.2,9.4-0.2
	s5,0.1,8.9,0.2c0.4-0.2,0.5-1.4,0.1-1.7l-2.2-0.2c-3.9-0.3-4.1-1.4-4.1-8.4v-30c0-2.2-0.1-2.3,2-2.3h4.8c3.7,0,6.3,0.5,7.8,1.7
	c1,0.7,1.5,3.2,1.7,4.9c0.3,0.4,1.5,0.4,1.8-0.1c-0.2-2,0.3-7.5,1-10.3C252.6,294.3,251.9,294.2,251.5,294.3 M275.8,297.8l1.7-0.1
	c0.4-0.3,0.3-1.5-0.1-1.7c-3.4,0.1-5.7,0.2-8.4,0.2c-2.8,0-5.1-0.1-8.5-0.2c-0.4,0.2-0.6,1.4-0.1,1.7l1.7,0.1c4,0.3,4.1,1.5,4.1,8.6
	v24c0,7.2-0.1,8.1-4.1,8.6l-1.7,0.2c-0.4,0.4-0.3,1.5,0.1,1.7c3.4-0.1,5.7-0.2,8.5-0.2c2.7,0,5,0.1,8.4,0.2c0.4-0.2,0.6-1.4,0.1-1.7
	l-1.7-0.2c-4-0.5-4.1-1.4-4.1-8.6v-24C271.7,299.3,271.8,298.2,275.8,297.8 M285.7,297.8c2.9,0.3,3.9,1.8,5.5,5.5l11.9,29.3
	c1.1,2.8,2.4,6.2,3.1,9c0.3,0.1,0.7,0.2,1,0.2c0.3,0,0.5-0.1,0.7-0.2c1.1-3.6,4.3-11.4,7-17.6l3.6-8.3c3-6.9,5.7-12.4,7.6-15.5
	c0.9-1.4,1.9-2.2,3.5-2.4l2-0.1c0.3-0.3,0.3-1.4-0.1-1.7c-2.2,0.1-4.3,0.2-6.6,0.2c-2.6,0-5.1-0.1-7-0.2c-0.5,0.3-0.6,1.3-0.1,1.7
	l1.2,0.1c2.4,0.3,3,0.8,3,1.3c0,0.5-0.1,1.2-0.6,2.6c-1.1,2.9-4.3,10.5-6.3,15.1c-1.5,3.6-4.4,10.5-6.5,15
	c-3.3-7.7-6.5-15.5-9.6-23.3c-2.1-5.1-3.3-8.8-3.4-9.4c0.1-0.6,0.6-1,3.2-1.3l1-0.1c0.5-0.4,0.3-1.4-0.2-1.7
	c-2.8,0.1-5.2,0.2-8.2,0.2c-2.9,0-5.1-0.1-7-0.2c-0.5,0.3-0.6,1.3-0.1,1.7L285.7,297.8L285.7,297.8z M345.8,340.8h6.1
	c6,0,12,0.1,18.1,0.2c0.9-1.8,2.5-7,3-9.4c-0.3-0.6-1.2-0.8-1.7-0.5c-1.7,3.5-3.6,5.9-4.8,6.6c-1.5,0.7-3.4,1-8.6,1
	c-5.9,0-7.4-0.8-8.2-1.6c-1.1-1.1-1.3-3.4-1.3-7v-9.5c0-1.8,0.2-1.8,2.2-1.8h3.9c2.7,0,4.3,0.1,5.2,0.3c1.4,0.3,1.8,1.3,2.1,2.5
	l0.6,2.6c0.3,0.4,1.5,0.4,1.8-0.1c0-1.5-0.3-4-0.3-6.5c0-2.6,0.3-5.2,0.3-6.8c-0.3-0.5-1.4-0.5-1.8-0.1l-0.5,2.8
	c-0.3,1.7-0.8,2.1-1.6,2.4c-0.8,0.3-2.9,0.4-5.7,0.4h-3.9c-2,0-2.2,0-2.2-1.9V301c0-2.6,0-2.7,2-2.7h4.9c3,0,5.1,0.1,6.5,0.4
	c3.5,0.9,4.1,3.2,5.2,6.4c0.3,0.4,1.4,0.3,1.7-0.1c-0.3-3-0.7-7.8-1.1-9c-0.8,0.2-4.8,0.2-9.1,0.2h-12.7c-2.8,0-5.1-0.1-8-0.2
	c-0.4,0.2-0.5,1.4-0.1,1.7l1.1,0.1c4,0.5,4.1,1.5,4.1,8.5v24.3c0,7.1-0.3,8.1-4.2,8.4l-2.2,0.2c-0.4,0.4-0.3,1.5,0.1,1.7
	C340.6,340.9,342.8,340.8,345.8,340.8"/>
</svg>
